<?xml version="1.0" encoding="utf-8"?>
<!-- Generator: Adobe Illustrator 22.1.0, SVG Export Plug-In . SVG Version: 6.00 Build 0)  -->
<svg version="1.1" id="Layer_1" xmlns="http://www.w3.org/2000/svg" xmlns:xlink="http://www.w3.org/1999/xlink" x="0px" y="0px"
	 viewBox="0 0 512 512" style="enable-background:new 0 0 512 512;" xml:space="preserve">
<g>
	<title>instagram</title>
	<g>
		<path d="M256,31c-61.2,0-68.8,0.3-92.7,1.3c-24,1.2-40.3,4.9-54.6,10.5c-14.8,5.8-27.4,13.5-39.8,26c-12.5,12.4-20.3,25-26,39.8
			c-5.6,14.3-9.3,30.6-10.5,54.6c-1.1,24-1.3,31.6-1.3,92.7s0.3,68.8,1.3,92.7c1.2,24,4.9,40.3,10.5,54.6
			c5.8,14.8,13.5,27.4,26,39.8c12.4,12.5,25,20.3,39.8,26c14.3,5.5,30.7,9.3,54.6,10.5c24,1.1,31.6,1.3,92.7,1.3s68.8-0.3,92.7-1.3
			c24-1.2,40.3-5,54.6-10.5c14.8-5.8,27.4-13.5,39.8-26c12.5-12.4,20.3-25,26-39.8c5.5-14.3,9.3-30.7,10.5-54.6
			c1.1-24,1.3-31.6,1.3-92.7s-0.3-68.8-1.3-92.7c-1.2-24-5-40.4-10.5-54.6c-5.8-14.8-13.5-27.4-26-39.8c-12.4-12.5-25-20.3-39.8-26
			c-14.3-5.6-30.7-9.3-54.6-10.5C324.8,31.2,317.2,31,256,31z M256,71.5c60.1,0,67.2,0.3,91,1.3c21.9,1,33.8,4.7,41.7,7.8
			c10.6,4.1,17.9,8.9,25.9,16.8c7.8,7.8,12.7,15.3,16.8,25.9c3.1,7.9,6.8,19.8,7.8,41.7c1,23.7,1.3,30.9,1.3,91s-0.3,67.2-1.4,91
			c-1.2,21.9-4.8,33.8-7.9,41.7c-4.3,10.6-9,17.9-16.9,25.9c-7.9,7.8-15.5,12.7-25.9,16.8c-7.8,3.1-19.9,6.8-41.9,7.8
			c-23.9,1-30.9,1.3-91.1,1.3s-67.2-0.3-91.1-1.4c-21.9-1.2-34-4.8-41.9-7.9c-10.7-4.3-18-9-25.9-16.9c-7.9-7.9-13-15.5-16.8-25.9
			c-3.2-7.8-6.8-19.9-7.9-41.9c-0.8-23.6-1.2-30.9-1.2-90.8c0-59.9,0.4-67.2,1.2-91.1c1.2-22,4.8-34,7.9-41.9
			c3.9-10.7,8.9-18,16.8-25.9c7.8-7.8,15.2-12.9,25.9-16.9c7.9-3.1,19.7-6.7,41.7-7.8c23.9-0.9,30.9-1.2,91-1.2L256,71.5z
			 M256,140.5c-63.9,0-115.5,51.7-115.5,115.5c0,63.9,51.7,115.5,115.5,115.5c63.9,0,115.5-51.7,115.5-115.5
			C371.5,192.2,319.8,140.5,256,140.5z M256,331c-41.5,0-75-33.5-75-75s33.5-75,75-75s75,33.5,75,75S297.5,331,256,331z
			 M403.2,135.9c0,15-12.2,27-27,27c-15,0-27-12.1-27-27c0-14.9,12.2-27,27-27S403.2,121,403.2,135.9z"/>
	</g>
</g>
</svg>
