<?xml version="1.0" encoding="utf-8"?>
<!-- Generator: Adobe Illustrator 23.0.1, SVG Export Plug-In . SVG Version: 6.00 Build 0)  -->
<svg version="1.1" id="Layer_1" xmlns="http://www.w3.org/2000/svg" xmlns:xlink="http://www.w3.org/1999/xlink" x="0px" y="0px"
	 viewBox="0 0 512 512" style="enable-background:new 0 0 512 512;" xml:space="preserve">
<style type="text/css">
	.st0{fill:#010101;}
</style>
<title>01</title>
<g>
	<polygon class="st0" points="368.8,176 143.2,176 256,266.6 	"/>
	<polygon class="st0" points="136,176 136,325.7 223.4,260.7 	"/>
	<polygon class="st0" points="256,292.2 235.1,272 136,336 376,336 276.9,272 	"/>
	<path class="st0" d="M256,6C117.9,6,6,117.9,6,256s111.9,250,250,250s250-111.9,250-250S394.1,6,256,6z M256,476
		c-121.5,0-220-98.5-220-220S134.5,36,256,36s220,98.5,220,220S377.5,476,256,476z"/>
	<polygon class="st0" points="376,325.7 376,176 288.6,260.6 	"/>
</g>
</svg>
